HIERARCHY
ROOT Hips
{
	OFFSET 0.000000 0.000000 0.000000
	CHANNELS 6 Xposition Yposition Zposition Yrotation Xrotation Zrotation
	JOINT Chest
	{
		OFFSET 0.000000 -0.009281 11.569106
		CHANNELS 3 Yrotation Xrotation Zrotation
		JOINT Chest2
		{
			OFFSET -0.000000 0.016865 9.269641
			CHANNELS 3 Yrotation Xrotation Zrotation
			JOINT Chest3
			{
				OFFSET -0.000000 0.000001 8.374491
				CHANNELS 3 Yrotation Xrotation Zrotation
				JOINT Chest4
				{
					OFFSET -0.000000 0.000001 8.374493
					CHANNELS 3 Yrotation Xrotation Zrotation
					JOINT Neck
					{
						OFFSET -0.000000 0.000002 12.152554
						CHANNELS 3 Yrotation Xrotation Zrotation
						JOINT Head
						{
							OFFSET -0.000000 0.040101 7.802319
							CHANNELS 3 Yrotation Xrotation Zrotation
							End Site
							{
								OFFSET -0.000000 0.020947 14.853096
							}
						}
					}
					JOINT RightCollar
					{
						OFFSET 2.894404 0.000001 6.791374
						CHANNELS 3 Yrotation Xrotation Zrotation
						JOINT RightShoulder
						{
							OFFSET 13.574684 0.000001 0.000000
							CHANNELS 3 Yrotation Xrotation Zrotation
							JOINT RightElbow
							{
								OFFSET 23.923903 0.000002 0.000000
								CHANNELS 3 Yrotation Xrotation Zrotation
								JOINT RightWrist
								{
									OFFSET 19.846718 0.012767 0.000000
									CHANNELS 3 Yrotation Xrotation Zrotation
									End Site
									{
										OFFSET 14.973145 0.000001 0.000000
									}
								}
							}
						}
					}
					JOINT LeftCollar
					{
						OFFSET -2.894404 0.000001 6.791374
						CHANNELS 3 Yrotation Xrotation Zrotation
						JOINT LeftShoulder
						{
							OFFSET -13.574684 -0.000001 0.000000
							CHANNELS 3 Yrotation Xrotation Zrotation
							JOINT LeftElbow
							{
								OFFSET -23.923903 -0.000002 0.000000
								CHANNELS 3 Yrotation Xrotation Zrotation
								JOINT LeftWrist
								{
									OFFSET -19.846718 0.012763 0.000000
									CHANNELS 3 Yrotation Xrotation Zrotation
									End Site
									{
										OFFSET -14.973145 -0.000001 0.000000
									}
								}
							}
						}
					}
				}
			}
		}
	}
	JOINT RightHip
	{
		OFFSET 9.469263 0.004643 0.045487
		CHANNELS 3 Yrotation Xrotation Zrotation
		JOINT RightKnee
		{
			OFFSET 0.000000 0.002661 -40.478676
			CHANNELS 3 Yrotation Xrotation Zrotation
			JOINT RightAnkle
			{
				OFFSET 0.000000 0.049106 -35.224068
				CHANNELS 3 Yrotation Xrotation Zrotation
				JOINT RightToe
				{
					OFFSET -0.000001 12.539529 -6.151390
					CHANNELS 3 Yrotation Xrotation Zrotation
					End Site
					{
						OFFSET -0.000001 5.044994 -1.291870
					}
				}
			}
		}
	}
	JOINT LeftHip
	{
		OFFSET -9.469263 0.004641 0.045487
		CHANNELS 3 Yrotation Xrotation Zrotation
		JOINT LeftKnee
		{
			OFFSET 0.000000 0.002661 -40.478676
			CHANNELS 3 Yrotation Xrotation Zrotation
			JOINT LeftAnkle
			{
				OFFSET 0.000000 0.049106 -35.224068
				CHANNELS 3 Yrotation Xrotation Zrotation
				JOINT LeftToe
				{
					OFFSET -0.000001 12.539529 -6.151390
					CHANNELS 3 Yrotation Xrotation Zrotation
					End Site
					{
						OFFSET -0.000001 5.044994 -1.291870
					}
				}
			}
		}
	}
}
MOTION
Frames: 11
Frame Time: 0.016667
-133.699921 96.379517 83.840736 6.783313 -10.440325 -169.369772 0.483269 -1.020426 0.261516 0.164184 -0.470285 0.095171 0.164185 -0.470284 0.095173 0.123210 -0.352687 0.071506 -0.103373 -20.686809 4.833067 1.242633 -2.356396 8.754299 11.644599 -0.374818 -2.095532 62.837003 1.606397 -23.170198 -8.615139 -29.200828 -18.025612 8.148803 -1.835073 -3.926642 -10.323330 -5.354938 -3.725717 -79.408428 4.440049 -18.860837 -10.471405 13.700946 -26.814201 1.845840 4.682417 -22.747397 3.869035 12.846789 8.265289 2.648685 -14.480582 -3.419103 10.299976 -1.976042 2.392626 -3.460625 0.994160 0.005776 -1.184100 -13.352738 -8.105328 0.815795 -30.278782 9.583220 15.362296 -10.425280 -9.069018 -3.921813 44.873434 0.090420 
-135.528931 94.272858 84.145477 8.585152 -11.627653 -169.140605 1.336508 -1.698770 0.455046 0.221287 -0.520480 0.140431 0.221288 -0.520479 0.140430 0.166084 -0.390309 0.105512 0.710560 -20.556303 4.718776 2.695202 -2.169111 8.793320 11.563489 -0.641125 -2.512922 61.275703 0.306645 -22.434974 -8.755249 -30.920772 -17.998921 6.745910 -2.935896 -4.188526 -9.324715 -6.514864 -3.834134 -81.008707 3.952275 -19.649023 -11.180046 14.724395 -27.150712 1.405649 7.656794 -24.395701 6.131408 11.699160 7.829884 3.647826 -15.943116 -3.824599 9.141208 -2.146409 2.764612 -3.026273 2.672879 -0.554215 1.627672 -11.488274 -8.022462 0.867742 -35.306754 11.765116 16.328027 -16.066989 -10.298103 -6.614607 53.718290 -1.415587 
-135.940079 92.497444 83.205963 7.718725 -11.945842 -166.573984 -0.421765 -2.213543 -0.981977 0.231624 -0.535956 0.199373 0.231622 -0.535957 0.199374 0.173890 -0.401893 0.149735 1.615985 -20.342429 4.531066 4.299567 -1.834684 8.732638 11.343556 -1.002532 -3.286650 60.246988 -1.383187 -21.036470 -8.836060 -32.592102 -17.879113 5.690815 -4.447059 -4.289831 -8.378088 -7.891437 -4.238707 -82.448388 3.770861 -20.609696 -11.747979 15.784589 -27.317622 1.420799 9.820487 -25.282546 5.637560 10.315251 3.579990 4.121623 -16.432073 -3.854203 7.100579 -2.696486 4.305806 -2.406540 4.231192 -0.864374 1.491124 -9.097125 -9.437817 0.807000 -40.165245 12.884279 17.346592 -21.147748 -11.328959 -8.679162 61.407683 -2.068576 
-136.829605 90.741524 82.630508 8.015472 -11.987186 -165.085003 -1.022023 -2.418161 -1.492282 0.222104 -0.531794 0.277878 0.222102 -0.531794 0.277877 0.166818 -0.398745 0.208596 2.525338 -20.141702 4.291822 5.896633 -1.525298 8.581976 11.333797 -1.048542 -3.635079 59.572616 -3.218047 -19.624602 -9.151240 -33.558307 -17.963884 5.016313 -5.843179 -4.177958 -8.122181 -7.977878 -4.535240 -83.143599 3.834376 -20.425650 -12.553404 16.777581 -27.272925 2.093685 10.510071 -25.334934 6.045843 9.077276 -0.632781 3.952656 -16.589283 -2.974799 5.772127 -1.340347 5.678386 -1.755408 3.867850 -0.976428 2.188007 -6.277892 -9.007475 2.002588 -43.983953 11.721591 18.820101 -24.677595 -9.275089 -18.641232 65.738467 -9.342969 
-137.058853 88.961960 82.169960 8.553180 -12.102644 -164.344009 -1.211531 -2.600621 -1.267499 0.204080 -0.513431 0.367732 0.204080 -0.513432 0.367735 0.153369 -0.384951 0.275969 3.395980 -19.989879 4.018435 7.410649 -1.303008 8.356684 11.451253 -0.807356 -3.579389 59.032936 -4.912950 -18.368303 -9.727789 -34.038815 -18.116995 4.318945 -6.852496 -3.913143 -8.404208 -6.721557 -4.363953 -83.300236 3.803378 -18.955086 -13.270698 17.589262 -26.794023 3.133603 10.104348 -24.868539 6.887588 8.034120 -3.108331 3.915078 -17.111705 -1.978185 5.010993 0.595469 6.805695 -1.604778 3.206114 -1.801742 2.842514 -3.648553 -7.301920 4.638644 -46.485765 9.481855 20.652557 -25.754476 -8.045205 -28.640225 66.115125 -16.556792 
-137.110840 87.239525 81.751465 9.269511 -11.926773 -164.134186 -1.132512 -2.366808 -0.503758 0.161515 -0.509934 0.474895 0.161517 -0.509936 0.474896 0.121533 -0.382326 0.356305 4.218663 -19.846631 3.706450 8.826102 -1.089915 8.047769 11.423940 -0.782706 -3.561274 58.577246 -6.216788 -16.588685 -10.264604 -34.463458 -18.145173 3.238533 -7.586232 -3.604377 -8.578709 -5.791599 -3.910431 -83.591188 3.643658 -17.830390 -13.243724 18.133925 -25.752807 4.196100 9.357637 -24.295852 7.470541 7.476930 -3.267881 4.626317 -18.037930 -1.329432 4.021514 3.042030 5.764666 -1.075059 2.521628 -1.686862 3.248273 -0.656187 -4.982424 7.521817 -48.008040 6.800433 22.145886 -26.070702 -7.201333 -34.481100 64.831268 -21.083609 
-136.924469 85.644157 81.360794 9.873131 -11.683952 -163.922177 -1.013237 -2.037455 0.401819 0.095406 -0.529179 0.604952 0.095406 -0.529180 0.604951 0.072077 -0.396791 0.453793 4.985589 -19.661796 3.342374 10.128670 -0.789107 7.632765 11.366744 -1.264023 -3.588245 57.989945 -6.871196 -14.067778 -10.541116 -35.106875 -17.939932 1.807860 -8.172774 -3.199968 -8.489052 -5.793969 -3.718094 -84.090284 3.629757 -17.562074 -12.358689 18.504989 -24.101919 5.246923 8.864794 -24.000897 8.059740 7.084788 -2.130996 5.698955 -18.724501 -1.501381 2.799908 4.896284 4.247808 -0.608744 2.172542 -1.488603 3.366619 2.546587 -3.326923 8.869141 -49.041769 4.946283 23.007904 -25.849599 -6.968233 -34.161454 63.192343 -20.959375 
-136.821518 84.151604 81.006310 10.787816 -11.572511 -163.497066 -0.442131 -1.669300 1.154610 0.038985 -0.547536 0.723647 0.038985 -0.547538 0.723644 0.029886 -0.410608 0.542764 5.634748 -19.491620 2.966791 11.212411 -0.501015 7.161751 11.138439 -2.084012 -3.818713 57.637105 -7.505647 -11.082680 -10.753164 -35.698110 -17.480377 0.313767 -8.635002 -2.598831 -8.396944 -5.729538 -3.619098 -84.475670 3.495006 -17.011599 -10.950068 18.826882 -22.023807 6.462229 8.881537 -24.099544 8.963325 6.756160 -0.675872 6.793086 -19.316373 -3.230134 1.721510 6.226840 3.380773 -0.143063 2.198133 -1.071361 3.794540 5.945396 -3.234437 8.139380 -49.994089 4.670461 23.521005 -24.872520 -6.371559 -31.262100 60.539300 -18.573250 
-136.652466 82.642006 80.689034 11.578975 -11.845051 -162.636954 0.232778 -1.690501 1.641170 0.000475 -0.570501 0.818372 0.000473 -0.570504 0.818369 0.001120 -0.427879 0.613770 6.138422 -19.352496 2.596095 12.029712 -0.254032 6.653744 10.946548 -2.571345 -4.002110 57.451549 -8.483844 -8.268123 -10.979352 -35.927359 -16.927061 -1.128050 -8.785781 -1.921175 -8.282117 -5.390774 -3.493310 -84.805603 3.180746 -15.955295 -9.443476 19.229510 -19.858743 7.867328 9.082364 -24.437423 9.929281 5.992332 0.465519 7.711100 -19.700699 -5.255475 0.962058 7.436884 3.010081 0.101956 2.262529 -0.941700 4.187851 9.190934 -4.723588 6.108679 -50.815122 5.447900 23.233174 -23.594248 -5.016449 -27.795045 56.841968 -15.378427 
-136.503510 81.071503 80.415558 12.169545 -12.354750 -161.667613 0.883656 -2.000869 2.166195 -0.016883 -0.587749 0.884848 -0.016882 -0.587750 0.884848 -0.011810 -0.440839 0.663612 6.497591 -19.278204 2.241453 12.582374 -0.111999 6.124839 10.928570 -2.680951 -4.006052 57.223977 -9.746755 -5.625831 -11.138801 -35.734624 -16.485403 -2.486443 -8.658057 -1.274662 -8.180115 -5.076061 -3.399210 -85.142700 3.113298 -14.697548 -8.116563 19.768031 -17.749514 9.289700 9.033813 -24.867267 10.829125 4.685370 0.962679 8.384721 -19.627155 -6.417643 0.120115 8.539103 2.260363 0.369078 2.214718 -0.700894 4.546868 12.207846 -6.804143 3.116784 -51.164373 7.302398 22.984611 -22.070621 -3.300362 -25.188044 52.216161 -12.735980 
-136.282028 79.464203 80.177254 12.368200 -12.752025 -160.506809 1.228728 -2.312421 2.608074 -0.008493 -0.585142 0.934719 -0.008492 -0.585141 0.934724 -0.005475 -0.438871 0.701028 6.722140 -19.302892 1.906673 12.886742 -0.140099 5.580616 10.983634 -2.760339 -3.940954 56.964522 -11.001807 -2.802480 -11.250338 -35.377740 -16.190473 -3.876350 -8.456273 -0.584472 -8.157502 -4.734095 -3.275806 -85.464914 3.534610 -13.309944 -6.912952 20.338364 -15.503618 10.599807 8.753876 -25.400784 11.466884 3.141795 0.346642 8.520369 -19.267287 -6.277308 -0.716705 9.739203 1.398451 0.610617 1.878063 -0.461532 4.576293 15.016929 -8.804941 0.184403 -50.519651 9.958006 22.735827 -20.372065 -2.369586 -22.658570 47.063903 -10.311789 
